<mxfile host="Electron" agent="Mozilla/5.0 (Macintosh; Intel Mac OS X 10_15_7) AppleWebKit/537.36 (KHTML, like Gecko) draw.io/26.2.2 Chrome/134.0.6998.178 Electron/35.1.2 Safari/537.36" version="26.2.2">
  <diagram id="C5RBs43oDa-KdzZeNtuy" name="Page-1">
    <mxGraphModel dx="2102" dy="854" grid="1" gridSize="10" guides="1" tooltips="1" connect="1" arrows="1" fold="1" page="1" pageScale="1" pageWidth="827" pageHeight="1169" math="0" shadow="0">
      <root>
        <mxCell id="WIyWlLk6GJQsqaUBKTNV-0" />
        <mxCell id="WIyWlLk6GJQsqaUBKTNV-1" parent="WIyWlLk6GJQsqaUBKTNV-0" />
        <mxCell id="73Fn7We6ZhIVxLNVWXC_-4" value="ClientComms.py" style="swimlane;fontStyle=1;align=center;verticalAlign=top;childLayout=stackLayout;horizontal=1;startSize=26;horizontalStack=0;resizeParent=1;resizeParentMax=0;resizeLast=0;collapsible=1;marginBottom=0;whiteSpace=wrap;html=1;fillColor=none;" parent="WIyWlLk6GJQsqaUBKTNV-1" vertex="1">
          <mxGeometry x="30" y="346.96000000000004" width="160" height="100" as="geometry" />
        </mxCell>
        <mxCell id="73Fn7We6ZhIVxLNVWXC_-5" value="- GameServer Port" style="text;strokeColor=none;fillColor=none;align=left;verticalAlign=top;spacingLeft=4;spacingRight=4;overflow=hidden;rotatable=0;points=[[0,0.5],[1,0.5]];portConstraint=eastwest;whiteSpace=wrap;html=1;" parent="73Fn7We6ZhIVxLNVWXC_-4" vertex="1">
          <mxGeometry y="26" width="160" height="26" as="geometry" />
        </mxCell>
        <mxCell id="73Fn7We6ZhIVxLNVWXC_-6" value="" style="line;strokeWidth=1;fillColor=none;align=left;verticalAlign=middle;spacingTop=-1;spacingLeft=3;spacingRight=3;rotatable=0;labelPosition=right;points=[];portConstraint=eastwest;strokeColor=inherit;" parent="73Fn7We6ZhIVxLNVWXC_-4" vertex="1">
          <mxGeometry y="52" width="160" height="8" as="geometry" />
        </mxCell>
        <mxCell id="73Fn7We6ZhIVxLNVWXC_-7" value="+ monitorServerMsgs()&lt;div&gt;+ sendMsg(msg)&lt;/div&gt;" style="text;strokeColor=none;fillColor=none;align=left;verticalAlign=top;spacingLeft=4;spacingRight=4;overflow=hidden;rotatable=0;points=[[0,0.5],[1,0.5]];portConstraint=eastwest;whiteSpace=wrap;html=1;" parent="73Fn7We6ZhIVxLNVWXC_-4" vertex="1">
          <mxGeometry y="60" width="160" height="40" as="geometry" />
        </mxCell>
        <mxCell id="73Fn7We6ZhIVxLNVWXC_-8" value="IO.py" style="swimlane;fontStyle=1;align=center;verticalAlign=top;childLayout=stackLayout;horizontal=1;startSize=30;horizontalStack=0;resizeParent=1;resizeParentMax=0;resizeLast=0;collapsible=1;marginBottom=0;whiteSpace=wrap;html=1;fillColor=none;" parent="WIyWlLk6GJQsqaUBKTNV-1" vertex="1">
          <mxGeometry x="360" y="628" width="180" height="110" as="geometry" />
        </mxCell>
        <mxCell id="73Fn7We6ZhIVxLNVWXC_-9" value="- Ncurses board" style="text;strokeColor=none;fillColor=none;align=left;verticalAlign=top;spacingLeft=4;spacingRight=4;overflow=hidden;rotatable=0;points=[[0,0.5],[1,0.5]];portConstraint=eastwest;whiteSpace=wrap;html=1;" parent="73Fn7We6ZhIVxLNVWXC_-8" vertex="1">
          <mxGeometry y="30" width="180" height="26" as="geometry" />
        </mxCell>
        <mxCell id="73Fn7We6ZhIVxLNVWXC_-10" value="" style="line;strokeWidth=1;fillColor=none;align=left;verticalAlign=middle;spacingTop=-1;spacingLeft=3;spacingRight=3;rotatable=0;labelPosition=right;points=[];portConstraint=eastwest;strokeColor=inherit;" parent="73Fn7We6ZhIVxLNVWXC_-8" vertex="1">
          <mxGeometry y="56" width="180" height="8" as="geometry" />
        </mxCell>
        <mxCell id="73Fn7We6ZhIVxLNVWXC_-11" value="+ drawBoard(pos, toRender)&lt;div&gt;- monitorUserInput()&lt;/div&gt;" style="text;strokeColor=none;fillColor=none;align=left;verticalAlign=top;spacingLeft=4;spacingRight=4;overflow=hidden;rotatable=0;points=[[0,0.5],[1,0.5]];portConstraint=eastwest;whiteSpace=wrap;html=1;" parent="73Fn7We6ZhIVxLNVWXC_-8" vertex="1">
          <mxGeometry y="64" width="180" height="46" as="geometry" />
        </mxCell>
        <mxCell id="73Fn7We6ZhIVxLNVWXC_-25" value="Game.py" style="swimlane;fontStyle=1;align=center;verticalAlign=top;childLayout=stackLayout;horizontal=1;startSize=26;horizontalStack=0;resizeParent=1;resizeParentMax=0;resizeLast=0;collapsible=1;marginBottom=0;whiteSpace=wrap;html=1;fillColor=none;" parent="WIyWlLk6GJQsqaUBKTNV-1" vertex="1">
          <mxGeometry x="140" y="500" width="160" height="128" as="geometry" />
        </mxCell>
        <mxCell id="73Fn7We6ZhIVxLNVWXC_-26" value="- CopyOfGameState&lt;div&gt;- Lock&lt;/div&gt;" style="text;strokeColor=none;fillColor=none;align=left;verticalAlign=top;spacingLeft=4;spacingRight=4;overflow=hidden;rotatable=0;points=[[0,0.5],[1,0.5]];portConstraint=eastwest;whiteSpace=wrap;html=1;" parent="73Fn7We6ZhIVxLNVWXC_-25" vertex="1">
          <mxGeometry y="26" width="160" height="44" as="geometry" />
        </mxCell>
        <mxCell id="73Fn7We6ZhIVxLNVWXC_-27" value="" style="line;strokeWidth=1;fillColor=none;align=left;verticalAlign=middle;spacingTop=-1;spacingLeft=3;spacingRight=3;rotatable=0;labelPosition=right;points=[];portConstraint=eastwest;strokeColor=inherit;" parent="73Fn7We6ZhIVxLNVWXC_-25" vertex="1">
          <mxGeometry y="70" width="160" height="8" as="geometry" />
        </mxCell>
        <mxCell id="73Fn7We6ZhIVxLNVWXC_-28" value="- updateState(state)&lt;div&gt;- userInput(input)&lt;/div&gt;" style="text;strokeColor=none;fillColor=none;align=left;verticalAlign=top;spacingLeft=4;spacingRight=4;overflow=hidden;rotatable=0;points=[[0,0.5],[1,0.5]];portConstraint=eastwest;whiteSpace=wrap;html=1;" parent="73Fn7We6ZhIVxLNVWXC_-25" vertex="1">
          <mxGeometry y="78" width="160" height="50" as="geometry" />
        </mxCell>
        <mxCell id="3UHHs2bOXcw11ELCa-H4-1" style="edgeStyle=orthogonalEdgeStyle;rounded=0;orthogonalLoop=1;jettySize=auto;html=1;exitX=0.5;exitY=0;exitDx=0;exitDy=0;entryX=0.5;entryY=0;entryDx=0;entryDy=0;startArrow=classic;startFill=1;" parent="WIyWlLk6GJQsqaUBKTNV-1" source="73Fn7We6ZhIVxLNVWXC_-29" target="73Fn7We6ZhIVxLNVWXC_-43" edge="1">
          <mxGeometry relative="1" as="geometry" />
        </mxCell>
        <mxCell id="3UHHs2bOXcw11ELCa-H4-2" value="Message Passing" style="edgeLabel;html=1;align=center;verticalAlign=middle;resizable=0;points=[];" parent="3UHHs2bOXcw11ELCa-H4-1" vertex="1" connectable="0">
          <mxGeometry x="-0.0142" y="-1" relative="1" as="geometry">
            <mxPoint as="offset" />
          </mxGeometry>
        </mxCell>
        <mxCell id="73Fn7We6ZhIVxLNVWXC_-29" value="GameServer.erl&lt;div&gt;(GenServer)&lt;/div&gt;" style="swimlane;fontStyle=1;align=center;verticalAlign=top;childLayout=stackLayout;horizontal=1;startSize=42;horizontalStack=0;resizeParent=1;resizeParentMax=0;resizeLast=0;collapsible=1;marginBottom=0;whiteSpace=wrap;html=1;fillColor=none;" parent="WIyWlLk6GJQsqaUBKTNV-1" vertex="1">
          <mxGeometry x="-130" y="150.00000000000003" width="160" height="118" as="geometry" />
        </mxCell>
        <mxCell id="73Fn7We6ZhIVxLNVWXC_-30" value="- state : {ConnectedClients (ports), GameServerPyPort}" style="text;strokeColor=none;fillColor=none;align=left;verticalAlign=top;spacingLeft=4;spacingRight=4;overflow=hidden;rotatable=0;points=[[0,0.5],[1,0.5]];portConstraint=eastwest;whiteSpace=wrap;html=1;" parent="73Fn7We6ZhIVxLNVWXC_-29" vertex="1">
          <mxGeometry y="42" width="160" height="36" as="geometry" />
        </mxCell>
        <mxCell id="73Fn7We6ZhIVxLNVWXC_-31" value="" style="line;strokeWidth=1;fillColor=none;align=left;verticalAlign=middle;spacingTop=-1;spacingLeft=3;spacingRight=3;rotatable=0;labelPosition=right;points=[];portConstraint=eastwest;strokeColor=inherit;" parent="73Fn7We6ZhIVxLNVWXC_-29" vertex="1">
          <mxGeometry y="78" width="160" height="8" as="geometry" />
        </mxCell>
        <mxCell id="73Fn7We6ZhIVxLNVWXC_-32" value="+ startLink()" style="text;strokeColor=none;fillColor=none;align=left;verticalAlign=top;spacingLeft=4;spacingRight=4;overflow=hidden;rotatable=0;points=[[0,0.5],[1,0.5]];portConstraint=eastwest;whiteSpace=wrap;html=1;" parent="73Fn7We6ZhIVxLNVWXC_-29" vertex="1">
          <mxGeometry y="86" width="160" height="32" as="geometry" />
        </mxCell>
        <mxCell id="73Fn7We6ZhIVxLNVWXC_-33" value="GameServer.py" style="swimlane;fontStyle=1;align=center;verticalAlign=top;childLayout=stackLayout;horizontal=1;startSize=26;horizontalStack=0;resizeParent=1;resizeParentMax=0;resizeLast=0;collapsible=1;marginBottom=0;whiteSpace=wrap;html=1;fillColor=none;" parent="WIyWlLk6GJQsqaUBKTNV-1" vertex="1">
          <mxGeometry x="-420" y="490" width="160" height="84" as="geometry" />
        </mxCell>
        <mxCell id="73Fn7We6ZhIVxLNVWXC_-34" value="+ GameState" style="text;strokeColor=none;fillColor=none;align=left;verticalAlign=top;spacingLeft=4;spacingRight=4;overflow=hidden;rotatable=0;points=[[0,0.5],[1,0.5]];portConstraint=eastwest;whiteSpace=wrap;html=1;" parent="73Fn7We6ZhIVxLNVWXC_-33" vertex="1">
          <mxGeometry y="26" width="160" height="24" as="geometry" />
        </mxCell>
        <mxCell id="73Fn7We6ZhIVxLNVWXC_-35" value="" style="line;strokeWidth=1;fillColor=none;align=left;verticalAlign=middle;spacingTop=-1;spacingLeft=3;spacingRight=3;rotatable=0;labelPosition=right;points=[];portConstraint=eastwest;strokeColor=inherit;" parent="73Fn7We6ZhIVxLNVWXC_-33" vertex="1">
          <mxGeometry y="50" width="160" height="8" as="geometry" />
        </mxCell>
        <mxCell id="73Fn7We6ZhIVxLNVWXC_-36" value="+ eventIsValid(event)" style="text;strokeColor=none;fillColor=none;align=left;verticalAlign=top;spacingLeft=4;spacingRight=4;overflow=hidden;rotatable=0;points=[[0,0.5],[1,0.5]];portConstraint=eastwest;whiteSpace=wrap;html=1;" parent="73Fn7We6ZhIVxLNVWXC_-33" vertex="1">
          <mxGeometry y="58" width="160" height="26" as="geometry" />
        </mxCell>
        <mxCell id="73Fn7We6ZhIVxLNVWXC_-39" value="RegisterClient.erl" style="swimlane;fontStyle=1;align=center;verticalAlign=top;childLayout=stackLayout;horizontal=1;startSize=26;horizontalStack=0;resizeParent=1;resizeParentMax=0;resizeLast=0;collapsible=1;marginBottom=0;whiteSpace=wrap;html=1;fillColor=none;" parent="WIyWlLk6GJQsqaUBKTNV-1" vertex="1">
          <mxGeometry x="440" y="160.50000000000003" width="160" height="66" as="geometry" />
        </mxCell>
        <mxCell id="73Fn7We6ZhIVxLNVWXC_-42" value="+ registerClient()&lt;div&gt;+ unregisterClient()&lt;/div&gt;" style="text;strokeColor=none;fillColor=none;align=left;verticalAlign=top;spacingLeft=4;spacingRight=4;overflow=hidden;rotatable=0;points=[[0,0.5],[1,0.5]];portConstraint=eastwest;whiteSpace=wrap;html=1;" parent="73Fn7We6ZhIVxLNVWXC_-39" vertex="1">
          <mxGeometry y="26" width="160" height="40" as="geometry" />
        </mxCell>
        <mxCell id="73Fn7We6ZhIVxLNVWXC_-43" value="ServerBroker.erl&lt;div&gt;(GenServer)&lt;/div&gt;" style="swimlane;fontStyle=1;align=center;verticalAlign=top;childLayout=stackLayout;horizontal=1;startSize=47;horizontalStack=0;resizeParent=1;resizeParentMax=0;resizeLast=0;collapsible=1;marginBottom=0;whiteSpace=wrap;html=1;fillColor=none;" parent="WIyWlLk6GJQsqaUBKTNV-1" vertex="1">
          <mxGeometry x="160" y="150.00000000000003" width="160" height="141" as="geometry" />
        </mxCell>
        <mxCell id="73Fn7We6ZhIVxLNVWXC_-44" value="&lt;div&gt;- state : {OnlineUsers, SupportedGames, GameServers}&lt;/div&gt;" style="text;strokeColor=none;fillColor=none;align=left;verticalAlign=top;spacingLeft=4;spacingRight=4;overflow=hidden;rotatable=0;points=[[0,0.5],[1,0.5]];portConstraint=eastwest;whiteSpace=wrap;html=1;" parent="73Fn7We6ZhIVxLNVWXC_-43" vertex="1">
          <mxGeometry y="47" width="160" height="54" as="geometry" />
        </mxCell>
        <mxCell id="73Fn7We6ZhIVxLNVWXC_-45" value="" style="line;strokeWidth=1;fillColor=none;align=left;verticalAlign=middle;spacingTop=-1;spacingLeft=3;spacingRight=3;rotatable=0;labelPosition=right;points=[];portConstraint=eastwest;strokeColor=inherit;" parent="73Fn7We6ZhIVxLNVWXC_-43" vertex="1">
          <mxGeometry y="101" width="160" height="8" as="geometry" />
        </mxCell>
        <mxCell id="73Fn7We6ZhIVxLNVWXC_-46" value="+ startLink()" style="text;strokeColor=none;fillColor=none;align=left;verticalAlign=top;spacingLeft=4;spacingRight=4;overflow=hidden;rotatable=0;points=[[0,0.5],[1,0.5]];portConstraint=eastwest;whiteSpace=wrap;html=1;rounded=0;" parent="73Fn7We6ZhIVxLNVWXC_-43" vertex="1">
          <mxGeometry y="109" width="160" height="32" as="geometry" />
        </mxCell>
        <mxCell id="73Fn7We6ZhIVxLNVWXC_-48" style="edgeStyle=orthogonalEdgeStyle;rounded=0;orthogonalLoop=1;jettySize=auto;html=1;exitX=0;exitY=0.5;exitDx=0;exitDy=0;entryX=1;entryY=0.5;entryDx=0;entryDy=0;" parent="WIyWlLk6GJQsqaUBKTNV-1" target="73Fn7We6ZhIVxLNVWXC_-44" edge="1">
          <mxGeometry relative="1" as="geometry">
            <mxPoint x="440" y="199.4999999999999" as="sourcePoint" />
          </mxGeometry>
        </mxCell>
        <mxCell id="73Fn7We6ZhIVxLNVWXC_-63" value="ServerErlComms.py" style="swimlane;fontStyle=1;align=center;verticalAlign=top;childLayout=stackLayout;horizontal=1;startSize=26;horizontalStack=0;resizeParent=1;resizeParentMax=0;resizeLast=0;collapsible=1;marginBottom=0;whiteSpace=wrap;html=1;fillColor=none;" parent="WIyWlLk6GJQsqaUBKTNV-1" vertex="1">
          <mxGeometry x="-290" y="346.96000000000004" width="160" height="100" as="geometry" />
        </mxCell>
        <mxCell id="73Fn7We6ZhIVxLNVWXC_-64" value="- GameServer Port" style="text;strokeColor=none;fillColor=none;align=left;verticalAlign=top;spacingLeft=4;spacingRight=4;overflow=hidden;rotatable=0;points=[[0,0.5],[1,0.5]];portConstraint=eastwest;whiteSpace=wrap;html=1;" parent="73Fn7We6ZhIVxLNVWXC_-63" vertex="1">
          <mxGeometry y="26" width="160" height="26" as="geometry" />
        </mxCell>
        <mxCell id="73Fn7We6ZhIVxLNVWXC_-65" value="" style="line;strokeWidth=1;fillColor=none;align=left;verticalAlign=middle;spacingTop=-1;spacingLeft=3;spacingRight=3;rotatable=0;labelPosition=right;points=[];portConstraint=eastwest;strokeColor=inherit;" parent="73Fn7We6ZhIVxLNVWXC_-63" vertex="1">
          <mxGeometry y="52" width="160" height="8" as="geometry" />
        </mxCell>
        <mxCell id="73Fn7We6ZhIVxLNVWXC_-66" value="+ monitorServerMsgs()&lt;div&gt;+ sendMsg(msg)&lt;/div&gt;" style="text;strokeColor=none;fillColor=none;align=left;verticalAlign=top;spacingLeft=4;spacingRight=4;overflow=hidden;rotatable=0;points=[[0,0.5],[1,0.5]];portConstraint=eastwest;whiteSpace=wrap;html=1;" parent="73Fn7We6ZhIVxLNVWXC_-63" vertex="1">
          <mxGeometry y="60" width="160" height="40" as="geometry" />
        </mxCell>
        <mxCell id="3UHHs2bOXcw11ELCa-H4-12" style="edgeStyle=orthogonalEdgeStyle;rounded=0;orthogonalLoop=1;jettySize=auto;html=1;exitX=1;exitY=0.5;exitDx=0;exitDy=0;entryX=0.5;entryY=0;entryDx=0;entryDy=0;" parent="WIyWlLk6GJQsqaUBKTNV-1" source="73Fn7We6ZhIVxLNVWXC_-7" target="73Fn7We6ZhIVxLNVWXC_-25" edge="1">
          <mxGeometry relative="1" as="geometry" />
        </mxCell>
        <mxCell id="3UHHs2bOXcw11ELCa-H4-16" style="edgeStyle=orthogonalEdgeStyle;rounded=0;orthogonalLoop=1;jettySize=auto;html=1;exitX=1;exitY=0.5;exitDx=0;exitDy=0;entryX=0.5;entryY=0;entryDx=0;entryDy=0;" parent="WIyWlLk6GJQsqaUBKTNV-1" source="73Fn7We6ZhIVxLNVWXC_-28" target="73Fn7We6ZhIVxLNVWXC_-8" edge="1">
          <mxGeometry relative="1" as="geometry" />
        </mxCell>
        <mxCell id="3UHHs2bOXcw11ELCa-H4-22" style="edgeStyle=orthogonalEdgeStyle;rounded=0;orthogonalLoop=1;jettySize=auto;html=1;exitX=0;exitY=0.5;exitDx=0;exitDy=0;entryX=0.5;entryY=0;entryDx=0;entryDy=0;" parent="WIyWlLk6GJQsqaUBKTNV-1" source="73Fn7We6ZhIVxLNVWXC_-30" target="73Fn7We6ZhIVxLNVWXC_-63" edge="1">
          <mxGeometry relative="1" as="geometry" />
        </mxCell>
        <mxCell id="3UHHs2bOXcw11ELCa-H4-23" value="Pyrlang Ports" style="edgeLabel;html=1;align=center;verticalAlign=middle;resizable=0;points=[];" parent="3UHHs2bOXcw11ELCa-H4-22" vertex="1" connectable="0">
          <mxGeometry x="-0.808" relative="1" as="geometry">
            <mxPoint x="-19" as="offset" />
          </mxGeometry>
        </mxCell>
        <mxCell id="3UHHs2bOXcw11ELCa-H4-24" style="edgeStyle=orthogonalEdgeStyle;rounded=0;orthogonalLoop=1;jettySize=auto;html=1;exitX=0;exitY=0.5;exitDx=0;exitDy=0;entryX=0.5;entryY=0;entryDx=0;entryDy=0;" parent="WIyWlLk6GJQsqaUBKTNV-1" source="73Fn7We6ZhIVxLNVWXC_-64" target="73Fn7We6ZhIVxLNVWXC_-33" edge="1">
          <mxGeometry relative="1" as="geometry" />
        </mxCell>
        <mxCell id="3UHHs2bOXcw11ELCa-H4-25" style="edgeStyle=orthogonalEdgeStyle;rounded=0;orthogonalLoop=1;jettySize=auto;html=1;exitX=1;exitY=0.5;exitDx=0;exitDy=0;entryX=0.5;entryY=0;entryDx=0;entryDy=0;" parent="WIyWlLk6GJQsqaUBKTNV-1" source="73Fn7We6ZhIVxLNVWXC_-30" target="73Fn7We6ZhIVxLNVWXC_-4" edge="1">
          <mxGeometry relative="1" as="geometry" />
        </mxCell>
        <mxCell id="3UHHs2bOXcw11ELCa-H4-26" value="Pyrlang Ports" style="edgeLabel;html=1;align=center;verticalAlign=middle;resizable=0;points=[];" parent="3UHHs2bOXcw11ELCa-H4-25" vertex="1" connectable="0">
          <mxGeometry x="-0.7318" y="-2" relative="1" as="geometry">
            <mxPoint x="11" y="-2" as="offset" />
          </mxGeometry>
        </mxCell>
      </root>
    </mxGraphModel>
  </diagram>
</mxfile>
